# xmcd CD database file
#
# Track frame offsets:
#	182
#	12792
#	29342
#	43592
#	61532
#	72745
#	89805
#	101927
#	116435
#	130202
#	147357
#	156815
#	169292
#	181352
#	182102
#	182852
#	183602
#	184352
#	185102
#	185840
#
# Disc length: 3772 seconds
#
# Revision: 4
# Processed by: cddbd v1.4PL0 Copyright (c) Steve Scherf et al.
# Submitted via: CDex 1.50Beta6
#
DISCID=360eba14
DTITLE=Leon Russell - Legend In My Time: Hank Wilson Vol.3
DYEAR=1998
DGENRE=Country
TTITLE0=Sixteen Tons
TTITLE1=Night Life
TTITLE2=Act Naturally
TTITLE3=Sweet Dreams
TTITLE4=Daddy Sang Bass
TTITLE5=He Stop Loving Her Today
TTITLE6=Mama Don't Let Your Babies Grow Up To Be Cowboys
TTITLE7=Funny How Time Slips Away
TTITLE8=Okie From Muskogee
TTITLE9=Crazy
TTITLE10=Love's Gonna Live Here
TTITLE11=He'll Have To Go
TTITLE12=Legend In My Time
TTITLE13=Audio Liner Notes 01
TTITLE14=Audio Liner Notes 02
TTITLE15=Audio Liner Notes 03
TTITLE16=Audio Liner Notes 04
TTITLE17=Audio Liner Notes 05
TTITLE18=Audio Liner Notes 06
TTITLE19=Audio Liner Notes 07
EXTD=YEAR: 1998
EXTT0=
EXTT1=
EXTT2=
EXTT3=
EXTT4=
EXTT5=
EXTT6=
EXTT7=
EXTT8=
EXTT9=
EXTT10=
EXTT11=
EXTT12=
EXTT13=
EXTT14=
EXTT15=
EXTT16=
EXTT17=
EXTT18=
EXTT19=
PLAYORDER=
